
      <svg data-logo="logo" xmlns="http://www.w3.org/2000/svg" viewBox="0 0 207.1300048828125 42">
        <g id="logogram" transform="
    translate(0, 0.5)
    rotate(0 27.5 20.5)
    
  "><path d="M35.5 0.5C45.9934 0.5 54.5 9.00659 54.5 19.5V40.5C50.0817 40.5 46.5 36.9183 46.5 32.5V19.5C46.5 13.4249 41.5751 8.5 35.5 8.5H30.2988C27.6467 8.50004 25.1029 9.55339 23.2275 11.4287L9.67188 24.9854C8.92179 25.7354 8.50006 26.7527 8.5 27.8135V28.5C8.5 30.7091 10.2909 32.5 12.5 32.5H30.5C30.5 36.7801 27.1389 40.2748 22.9121 40.4893L22.5 40.5H12.5C5.87259 40.5 0.5 35.1274 0.5 28.5V27.8135C0.500062 24.631 1.76427 21.5785 4.01465 19.3281L17.5713 5.77246C20.9469 2.39685 25.525 0.500044 30.2988 0.5H35.5Z" fill="#FF500B"/><path d="M37.5 12.5C40.2614 12.5 42.5 14.7386 42.5 17.5V40.5C38.0817 40.5 34.5 36.9183 34.5 32.5V20.5H31.1562L24.6207 27.0355C23.683 27.9732 22.4113 28.5 21.0852 28.5H12.9775C12.5588 28.5 12.3491 27.9937 12.6452 27.6976L26.3789 13.9648C27.3165 13.0272 28.588 12.5 29.9141 12.5H37.5Z" fill="#FF500B"/></g>
        <g id="logotype" transform="translate(61, 7.81201171875)"><path fill="#111111" d="M12.60 26L6.84 26L15.54 0.54L22.37 0.54L31.29 26L25.50 26L21.42 13.71Q20.68 11.34 19.92 8.51Q19.16 5.68 18.32 2.33L18.32 2.33L19.45 2.33Q18.65 5.70 17.94 8.54Q17.23 11.39 16.53 13.71L16.53 13.71L12.60 26ZM25.86 20.09L12.27 20.09L12.27 16.00L25.86 16.00L25.86 20.09ZM39.63 26.38L39.63 26.38Q37.32 26.38 35.55 25.72Q33.77 25.06 32.64 23.80Q31.51 22.55 31.19 20.77L31.19 20.77L35.96 19.95Q36.33 21.28 37.27 21.95Q38.21 22.62 39.78 22.62L39.78 22.62Q41.24 22.62 42.09 22.06Q42.95 21.51 42.95 20.65L42.95 20.65Q42.95 19.90 42.34 19.42Q41.73 18.94 40.49 18.69L40.49 18.69L37.19 18.00Q34.42 17.44 33.05 16.08Q31.68 14.72 31.68 12.58L31.68 12.58Q31.68 10.74 32.69 9.41Q33.70 8.09 35.50 7.37Q37.29 6.65 39.72 6.65L39.72 6.65Q41.97 6.65 43.63 7.28Q45.29 7.90 46.31 9.05Q47.34 10.19 47.68 11.75L47.68 11.75L43.13 12.55Q42.84 11.58 42.01 10.95Q41.19 10.33 39.78 10.33L39.78 10.33Q38.52 10.33 37.67 10.86Q36.81 11.39 36.81 12.26L36.81 12.26Q36.81 12.99 37.37 13.49Q37.92 13.99 39.27 14.26L39.27 14.26L42.71 14.94Q45.48 15.51 46.83 16.78Q48.18 18.05 48.18 20.10L48.18 20.10Q48.18 21.98 47.08 23.39Q45.99 24.80 44.07 25.59Q42.14 26.38 39.63 26.38ZM47.52 6.89L58.85 6.89L58.85 10.81L47.52 10.81L47.52 6.89ZM50.16 20.86L50.16 2.35L55.28 2.35L55.28 20.41Q55.28 21.32 55.68 21.75Q56.09 22.19 57.03 22.19L57.03 22.19Q57.32 22.19 57.85 22.11Q58.38 22.04 58.65 21.97L58.65 21.97L59.38 25.81Q58.53 26.07 57.68 26.17Q56.84 26.27 56.07 26.27L56.07 26.27Q53.20 26.27 51.68 24.87Q50.16 23.47 50.16 20.86L50.16 20.86ZM65.04 26L59.91 26L59.91 6.89L64.87 6.89L64.87 10.23L65.07 10.23Q65.60 8.45 66.84 7.54Q68.08 6.64 69.69 6.64L69.69 6.64Q70.08 6.64 70.53 6.68Q70.99 6.72 71.35 6.81L71.35 6.81L71.35 11.39Q71.00 11.27 70.35 11.20Q69.70 11.13 69.12 11.13L69.12 11.13Q67.96 11.13 67.02 11.64Q66.08 12.14 65.56 13.04Q65.04 13.93 65.04 15.13L65.04 15.13L65.04 26ZM77.22 26.38L77.22 26.38Q75.41 26.38 73.97 25.74Q72.52 25.09 71.69 23.82Q70.86 22.55 70.86 20.65L70.86 20.65Q70.86 19.06 71.45 17.98Q72.04 16.91 73.06 16.26Q74.08 15.61 75.37 15.27Q76.66 14.93 78.08 14.79L78.08 14.79Q79.73 14.62 80.75 14.47Q81.77 14.33 82.24 14.01Q82.71 13.70 82.71 13.08L82.71 13.08L82.71 12.99Q82.71 12.17 82.37 11.61Q82.02 11.05 81.36 10.75Q80.69 10.45 79.72 10.45L79.72 10.45Q78.73 10.45 77.99 10.75Q77.26 11.05 76.80 11.54Q76.33 12.04 76.11 12.65L76.11 12.65L71.41 11.87Q71.91 10.21 73.05 9.05Q74.20 7.88 75.90 7.27Q77.60 6.65 79.72 6.65L79.72 6.65Q81.27 6.65 82.73 7.02Q84.18 7.39 85.33 8.16Q86.48 8.93 87.16 10.16Q87.84 11.39 87.84 13.13L87.84 13.13L87.84 26L82.98 26L82.98 23.35L82.81 23.35Q82.35 24.24 81.58 24.91Q80.81 25.59 79.73 25.98Q78.64 26.38 77.22 26.38ZM78.67 22.77L78.67 22.77Q79.89 22.77 80.80 22.29Q81.72 21.81 82.23 20.99Q82.74 20.17 82.74 19.16L82.74 19.16L82.74 17.10Q82.52 17.27 82.06 17.40Q81.60 17.54 81.03 17.64Q80.47 17.75 79.92 17.83Q79.38 17.92 78.95 17.97L78.95 17.97Q78.01 18.10 77.29 18.41Q76.57 18.72 76.18 19.22Q75.79 19.73 75.79 20.51L75.79 20.51Q75.79 21.25 76.16 21.75Q76.54 22.26 77.18 22.51Q77.82 22.77 78.67 22.77ZM106.26 26L90.05 26L90.05 0.54L95.27 0.54L95.27 21.68L106.26 21.68L106.26 26ZM112.78 26.38L112.78 26.38Q110.97 26.38 109.53 25.74Q108.08 25.09 107.25 23.82Q106.42 22.55 106.42 20.65L106.42 20.65Q106.42 19.06 107.01 17.98Q107.60 16.91 108.62 16.26Q109.64 15.61 110.93 15.27Q112.22 14.93 113.64 14.79L113.64 14.79Q115.29 14.62 116.31 14.47Q117.33 14.33 117.80 14.01Q118.27 13.70 118.27 13.08L118.27 13.08L118.27 12.99Q118.27 12.17 117.93 11.61Q117.58 11.05 116.92 10.75Q116.25 10.45 115.28 10.45L115.28 10.45Q114.29 10.45 113.55 10.75Q112.82 11.05 112.35 11.54Q111.89 12.04 111.67 12.65L111.67 12.65L106.97 11.87Q107.47 10.21 108.61 9.05Q109.76 7.88 111.46 7.27Q113.16 6.65 115.28 6.65L115.28 6.65Q116.83 6.65 118.29 7.02Q119.74 7.39 120.89 8.16Q122.04 8.93 122.72 10.16Q123.39 11.39 123.39 13.13L123.39 13.13L123.39 26L118.54 26L118.54 23.35L118.37 23.35Q117.91 24.24 117.14 24.91Q116.37 25.59 115.29 25.98Q114.20 26.38 112.78 26.38ZM114.23 22.77L114.23 22.77Q115.45 22.77 116.36 22.29Q117.28 21.81 117.79 20.99Q118.30 20.17 118.30 19.16L118.30 19.16L118.30 17.10Q118.08 17.27 117.62 17.40Q117.16 17.54 116.59 17.64Q116.03 17.75 115.48 17.83Q114.94 17.92 114.51 17.97L114.51 17.97Q113.57 18.10 112.85 18.41Q112.13 18.72 111.74 19.22Q111.35 19.73 111.35 20.51L111.35 20.51Q111.35 21.25 111.72 21.75Q112.10 22.26 112.74 22.51Q113.38 22.77 114.23 22.77ZM136.19 26.32L136.19 26.32Q134.64 26.32 133.56 25.79Q132.48 25.27 131.81 24.49Q131.13 23.71 130.78 22.94L130.78 22.94L130.54 22.94L130.54 26L125.49 26L125.49 0.54L130.62 0.54L130.62 10.11L130.78 10.11Q131.13 9.35 131.79 8.55Q132.45 7.75 133.53 7.20Q134.60 6.65 136.23 6.65L136.23 6.65Q138.35 6.65 140.11 7.75Q141.87 8.84 142.92 11.03Q143.97 13.22 143.97 16.48L143.97 16.48Q143.97 19.66 142.94 21.86Q141.92 24.05 140.16 25.19Q138.40 26.32 136.19 26.32ZM134.62 22.21L134.62 22.21Q135.95 22.21 136.87 21.47Q137.78 20.74 138.25 19.44Q138.72 18.14 138.72 16.46L138.72 16.46Q138.72 14.79 138.25 13.51Q137.78 12.23 136.88 11.49Q135.97 10.76 134.62 10.76L134.62 10.76Q133.30 10.76 132.38 11.47Q131.46 12.17 130.98 13.45Q130.50 14.72 130.50 16.46L130.50 16.46Q130.50 18.19 130.99 19.48Q131.48 20.77 132.40 21.49Q133.32 22.21 134.62 22.21Z"/></g>
        
      </svg>
    